<?xml version="1.0" standalone="no"?>
<!DOCTYPE svg PUBLIC "-//W3C//DTD SVG 20010904//EN"
 "http://www.w3.org/TR/2001/REC-SVG-20010904/DTD/svg10.dtd">
<svg version="1.0" xmlns="http://www.w3.org/2000/svg"
 width="700.000000pt" height="700.000000pt" viewBox="0 0 700.000000 700.000000"
 preserveAspectRatio="xMidYMid meet">
<metadata>
Created by potrace 1.14, written by Peter Selinger 2001-2017
</metadata>
<g transform="translate(0.000000,700.000000) scale(0.100000,-0.100000)"
fill="#000000" stroke="none">
<path d="M595 6994 c-291 -61 -477 -224 -565 -494 l-25 -75 0 -2925 0 -2925
23 -74 c54 -170 155 -301 302 -392 91 -57 153 -80 261 -99 45 -8 911 -10 2954
-8 l2890 3 76 27 c247 87 410 265 469 510 20 82 20 116 19 2968 0 2779 -1
2888 -19 2954 -68 253 -247 439 -495 513 -57 17 -203 18 -2965 19 -1598 1
-2914 0 -2925 -2z m5856 -381 c77 -37 130 -92 168 -172 l26 -56 0 -2885 0
-2885 -26 -56 c-37 -79 -90 -133 -167 -171 l-67 -33 -862 -3 c-475 -1 -864 1
-864 5 -6 34 -2 3057 3 3066 4 7 107 111 228 233 l222 221 41 -14 c22 -8 68
-13 101 -12 121 4 219 48 298 131 85 90 119 183 114 313 -3 68 -9 94 -35 147
-57 118 -141 191 -262 229 -303 95 -605 -191 -526 -498 l14 -52 -259 -258
c-143 -142 -267 -271 -276 -288 -15 -27 -16 -164 -17 -1625 l0 -1595 -140 0
-140 0 0 1703 c0 937 3 1708 6 1714 3 5 108 112 232 237 141 141 231 240 240
261 11 29 14 139 13 595 l-1 560 58 39 c71 47 128 117 158 193 32 81 32 224 1
303 -142 357 -639 357 -783 -1 -28 -70 -34 -189 -13 -261 30 -104 116 -213
204 -256 l25 -13 0 -509 0 -510 -232 -233 c-128 -128 -238 -246 -244 -263 -10
-22 -13 -437 -14 -1789 -2 -968 -3 -1763 -4 -1767 0 -5 -61 -8 -135 -8 -98 0
-135 3 -138 13 -2 6 -4 651 -3 1432 1 1133 -1 1427 -11 1453 -8 20 -156 175
-386 405 l-372 372 -1 350 0 350 60 40 c149 100 219 291 167 461 -91 298 -451
400 -684 194 -199 -176 -175 -506 47 -655 l60 -40 1 -390 1 -390 28 -60 c24
-52 77 -110 385 -420 l356 -360 0 -1375 -1 -1375 -134 -3 c-79 -1 -137 1 -140
7 -4 5 -6 493 -5 1083 1 841 -2 1080 -12 1105 -7 18 -124 143 -281 300 l-269
268 18 58 c12 39 16 81 14 135 -5 119 -42 200 -128 284 -83 81 -181 118 -300
114 -40 -2 -83 -6 -96 -9 -55 -14 -139 -65 -186 -111 -66 -66 -103 -135 -118
-224 -45 -267 171 -509 436 -489 39 3 78 7 86 10 9 2 102 -85 250 -235 l235
-238 0 -1021 c0 -561 -3 -1025 -6 -1030 -3 -6 -350 -8 -900 -7 l-894 3 -67 33
c-77 38 -130 92 -167 171 l-26 56 0 2885 0 2885 26 55 c47 101 126 169 228
196 36 10 661 12 2911 11 l2865 -2 66 -32z m-2026 -611 c17 -8 47 -32 67 -54
74 -78 77 -187 7 -271 -79 -96 -217 -102 -305 -13 -134 133 -40 354 150 354
28 -1 65 -7 81 -16z m-1910 -693 c88 -25 153 -129 141 -225 -20 -164 -211
-239 -339 -133 -45 37 -66 76 -73 133 -13 105 46 192 156 229 26 9 74 7 115
-4z m2826 -849 c67 -35 119 -118 119 -190 0 -120 -111 -220 -229 -207 -61 7
-100 26 -139 71 -94 108 -50 282 84 332 44 16 129 13 165 -6z m-3412 -994
c116 -73 133 -221 38 -320 -86 -90 -227 -85 -305 10 -71 85 -68 196 6 276 68
72 177 87 261 34z"/>
</g>
</svg>
