<svg width="100" height="120" viewBox="0 0 100 120" fill="none" xmlns="http://www.w3.org/2000/svg">
<g id="Frame 1" clip-path="url(#clip0)">
<g id="darkGroup">
<path id="dark1" opacity="0.7" d="M51.732 60C50.9622 61.3333 49.0377 61.3333 48.2679 60L28.3494 25.5C27.5796 24.1667 28.5418 22.5 30.0814 22.5L69.9186 22.5C71.4582 22.5 72.4204 24.1667 71.6506 25.5L51.732 60Z" fill="#635BFF"/>
<path id="dark2" opacity="0.7" d="M51.732 42C50.9622 43.3333 49.0377 43.3333 48.2679 42L28.3494 7.5C27.5796 6.16666 28.5418 4.5 30.0814 4.5L69.9186 4.5C71.4582 4.5 72.4204 6.16667 71.6506 7.5L51.732 42Z" fill="#635BFF"/>
</g>
<g id="lightGroup">
<path id="light1" opacity="0.7" d="M51.732 42C50.9622 43.3333 49.0377 43.3333 48.2679 42L28.3494 7.5C27.5796 6.16666 28.5418 4.5 30.0814 4.5L69.9186 4.5C71.4582 4.5 72.4204 6.16667 71.6506 7.5L51.732 42Z" fill="#43C4ED"/>
</g>
</g>
<defs>
<clipPath id="clip0">
<rect width="100" height="120" fill="white"/>
</clipPath>
</defs>
</svg>
