<svg width="250" height="150" viewBox="0 0 250 150" fill="none" xmlns="http://www.w3.org/2000/svg">
<g id="Frame 1">
<g id="text404">
<g id="glitch-red">
<g id="Subtract">
<path fill-rule="evenodd" clip-rule="evenodd" d="M84.1713 91.3984H69.9682V23.4062H56.1166L52.2543 29.3834H69.9682V45.2508H56.89L56.8901 91.3984H25.0385L54.5483 45.2508H42.001L10.2729 94.3516V102.016H56.8901V125.781H69.9682V102.016H84.1713V91.3984ZM152.304 116.078C157.507 108.672 160.109 97.3516 160.109 82.1172V65.2422C160.034 57.4229 159.245 50.6883 157.742 45.0386C157.76 45.1092 157.779 45.1799 157.798 45.2508H144.712C146.305 50.0656 147.101 56.4247 147.101 64.3281V85.6328C146.96 96.3203 145.32 104.148 142.179 109.117C139.085 114.086 134.328 116.57 127.906 116.57C121.39 116.57 116.515 113.945 113.281 108.695C110.093 103.398 108.499 95.2188 108.499 84.1562V63.3438C108.567 55.8643 109.397 49.7772 110.99 45.0825C110.981 45.1087 110.972 45.135 110.963 45.1613C110.953 45.1911 110.943 45.2209 110.933 45.2508H97.8364C96.2732 51.1746 95.4916 58.2603 95.4916 66.5078V83.875C95.6791 98.2656 98.3979 109.094 103.648 116.359C108.898 123.578 116.984 127.188 127.906 127.188C138.968 127.188 147.101 123.484 152.304 116.078ZM106.385 29.3834H149.26C144.116 24.4611 136.951 22 127.765 22C118.65 22 111.524 24.4611 106.385 29.3834ZM245.89 91.3984H231.687L231.687 45.2508H218.609L218.609 91.3984H186.757L216.267 45.2508H203.72L171.992 94.3516V102.016H218.609V125.781H231.687V102.016H245.89V91.3984ZM213.973 29.3834H231.687L231.687 23.4062H217.835L213.973 29.3834Z" fill="#FF6F6F" style="mix-blend-mode:multiply"/>
</g>
</g>
<g id="glitch-blue">
<g id="Subtract_2">
<path fill-rule="evenodd" clip-rule="evenodd" d="M81.7667 91.3984H67.5635V23.4062H53.712L49.8496 29.3834H67.5635V45.2508H54.4854L54.4854 91.3984H22.6339L52.1437 45.2508H39.5964L7.86824 94.3516V102.016H54.4854V125.781H67.5635V102.016H81.7667V91.3984ZM149.899 116.078C155.103 108.672 157.704 97.3516 157.704 82.1172V65.2422C157.629 57.4229 156.84 50.6883 155.337 45.0386C155.351 45.0902 155.364 45.1419 155.378 45.1937L155.393 45.2508H142.307C143.9 50.0656 144.696 56.4247 144.696 64.3281V85.6328C144.556 96.3203 142.915 104.148 139.774 109.117C136.681 114.086 131.923 116.57 125.501 116.57C118.985 116.57 114.11 113.945 110.876 108.695C107.689 103.398 106.095 95.2188 106.095 84.1562V63.3438C106.162 55.8643 106.992 49.7772 108.585 45.0825C108.566 45.1384 108.547 45.1945 108.529 45.2508H95.4318C93.8686 51.1746 93.087 58.2603 93.087 66.5078V83.875C93.2745 98.2656 95.9932 109.094 101.243 116.359C106.493 123.578 114.579 127.188 125.501 127.188C136.564 127.188 144.696 123.484 149.899 116.078ZM243.485 91.3984H229.282L229.282 45.2508H216.204L216.204 91.3984H184.353L213.862 45.2508H201.315L169.587 94.3516V102.016H216.204V125.781H229.282V102.016H243.485V91.3984ZM211.568 29.3834H229.282L229.282 23.4062H215.431L211.568 29.3834Z" fill="#4DE6FF" style="mix-blend-mode:multiply"/>
</g>
</g>
<g id="glitch">
<g id="Group">
<path id="Intersect" fill-rule="evenodd" clip-rule="evenodd" d="M227.85 29.7386V45.606H214.772V41.5506L213.225 44.3631L212.43 45.606H199.883L210.136 29.7386L227.85 29.7386ZM145.424 29.7386C146.448 30.7189 147.392 31.7969 148.257 32.9724C150.73 36.315 152.631 40.5262 153.961 45.606H140.875C140.248 43.71 139.498 42.0535 138.624 40.6365C135.53 35.574 130.632 33.0427 123.928 33.0427C117.272 33.0427 112.421 35.5506 109.374 40.5662C108.491 42.0197 107.732 43.6997 107.097 45.606H93.9998C95.2885 40.7223 97.1085 36.6283 99.4597 33.324C100.394 32.011 101.423 30.8159 102.548 29.7386L145.424 29.7386ZM66.1315 45.606V29.7386L48.4176 29.7386L38.1644 45.606H50.7117L51.5065 44.3631L53.0534 41.5506V45.606H66.1315Z" fill="white"/>
<path id="Intersect_2" fill-rule="evenodd" clip-rule="evenodd" d="M80.3347 91.7537H66.1315V77.3408H53.0534V91.7537H21.2018L30.4184 77.3408H17.6579L7.40464 93.2081H80.3347V91.7537ZM242.053 93.2081H169.123L179.377 77.3408H192.137L182.921 91.7537H214.772V77.3408H227.85V91.7537H242.053V93.2081ZM156.272 77.3408V82.4724C156.272 86.2978 156.108 89.8763 155.78 93.2081H142.902C143.11 90.9671 143.231 88.5604 143.264 85.9881V77.3408H156.272ZM91.655 77.3408V84.2302C91.6962 87.3952 91.8599 90.3878 92.146 93.2081H105.045C104.79 90.54 104.663 87.6411 104.663 84.5115V77.3408H91.655Z" fill="white"/>
<path id="Intersect_3" fill-rule="evenodd" clip-rule="evenodd" d="M214.772 124.943H227.85V126.136H214.772V124.943ZM110.057 124.943H138.067C134.087 126.676 129.421 127.543 124.069 127.543C118.717 127.543 114.046 126.676 110.057 124.943ZM66.1315 124.943V126.136H53.0534V124.943H66.1315Z" fill="white"/>
<path id="Intersect_4" fill-rule="evenodd" clip-rule="evenodd" d="M225.446 29.7386V45.606H212.368V41.5506L210.821 44.3631L210.026 45.606H197.478L207.732 29.7386L225.446 29.7386ZM143.019 29.7386C144.043 30.7189 144.988 31.7969 145.852 32.9724C148.325 36.315 150.227 40.5262 151.556 45.606H138.471C137.844 43.71 137.093 42.0535 136.219 40.6365C133.125 35.574 128.227 33.0427 121.524 33.0427C114.868 33.0427 110.016 35.5506 106.969 40.5662C106.086 42.0197 105.327 43.6997 104.692 45.606H91.5951C92.8839 40.7223 94.7038 36.6283 97.055 33.324C97.9893 32.011 99.0187 30.8159 100.143 29.7386L143.019 29.7386ZM63.7269 45.606V29.7386L46.013 29.7386L35.7597 45.606H48.3071L49.1019 44.3631L50.6488 41.5506V45.606H63.7269Z" fill="white"/>
<path id="Intersect_5" fill-rule="evenodd" clip-rule="evenodd" d="M77.93 91.7537H63.7269V77.3408H50.6488V91.7537H18.7972L28.0138 77.3408H15.2533L5 93.2081H77.93V91.7537ZM239.649 93.2081H166.719L176.972 77.3408H189.733L180.516 91.7537H212.368V77.3408H225.446V91.7537H239.649V93.2081ZM153.868 77.3408V82.4724C153.868 86.2978 153.703 89.8763 153.375 93.2081H140.497C140.705 90.9671 140.826 88.5604 140.86 85.9881V77.3408H153.868ZM89.2503 77.3408V84.2302C89.2916 87.3952 89.4552 90.3878 89.7413 93.2081H102.641C102.386 90.54 102.258 87.6411 102.258 84.5115V77.3408H89.2503Z" fill="white"/>
<path id="Intersect_6" fill-rule="evenodd" clip-rule="evenodd" d="M212.368 124.943H225.446V126.136H212.368V124.943ZM107.652 124.943H135.662C131.682 126.676 127.016 127.543 121.664 127.543C116.313 127.543 111.642 126.676 107.652 124.943ZM63.7269 124.943V126.136H50.6488V124.943H63.7269Z" fill="white"/>
</g>
<g id="Intersect_7">
<path fill-rule="evenodd" clip-rule="evenodd" d="M227.85 29.7386V45.606H214.772V41.5506L213.225 44.3631L212.43 45.606H199.883L210.136 29.7386L227.85 29.7386ZM145.424 29.7386C146.448 30.7189 147.392 31.7969 148.257 32.9724C150.73 36.315 152.631 40.5262 153.961 45.606H140.875C140.248 43.71 139.498 42.0535 138.624 40.6365C135.53 35.574 130.632 33.0427 123.928 33.0427C117.272 33.0427 112.421 35.5506 109.374 40.5662C108.491 42.0197 107.732 43.6997 107.097 45.606H93.9998C95.2885 40.7223 97.1085 36.6283 99.4597 33.324C100.394 32.011 101.423 30.8159 102.548 29.7386L145.424 29.7386ZM66.1315 45.606V29.7386L48.4176 29.7386L38.1644 45.606H50.7117L51.5065 44.3631L53.0534 41.5506V45.606H66.1315Z" fill="#FF6F6F" style="mix-blend-mode:multiply"/>
</g>
<g id="Intersect_8">
<path fill-rule="evenodd" clip-rule="evenodd" d="M80.3347 91.7537H66.1315V77.3408H53.0534V91.7537H21.2018L30.4184 77.3408H17.6579L7.40464 93.2081H80.3347V91.7537ZM242.053 93.2081H169.123L179.377 77.3408H192.137L182.921 91.7537H214.772V77.3408H227.85V91.7537H242.053V93.2081ZM156.272 77.3408V82.4724C156.272 86.2978 156.108 89.8763 155.78 93.2081H142.902C143.11 90.9671 143.231 88.5604 143.264 85.9881V77.3408H156.272ZM91.655 77.3408V84.2302C91.6962 87.3952 91.8599 90.3878 92.146 93.2081H105.045C104.79 90.54 104.663 87.6411 104.663 84.5115V77.3408H91.655Z" fill="#FF6F6F" style="mix-blend-mode:multiply"/>
</g>
<g id="Intersect_9">
<path fill-rule="evenodd" clip-rule="evenodd" d="M214.772 124.943H227.85V126.136H214.772V124.943ZM110.057 124.943H138.067C134.087 126.676 129.421 127.543 124.069 127.543C118.717 127.543 114.046 126.676 110.057 124.943ZM66.1315 124.943V126.136H53.0534V124.943H66.1315Z" fill="#FF6F6F" style="mix-blend-mode:multiply"/>
</g>
<g id="Intersect_10">
<path fill-rule="evenodd" clip-rule="evenodd" d="M225.446 29.7386V45.606H212.368V41.5506L210.821 44.3631L210.026 45.606H197.478L207.732 29.7386L225.446 29.7386ZM143.019 29.7386C144.043 30.7189 144.988 31.7969 145.852 32.9724C148.325 36.315 150.227 40.5262 151.556 45.606H138.471C137.844 43.71 137.093 42.0535 136.219 40.6365C133.125 35.574 128.227 33.0427 121.524 33.0427C114.868 33.0427 110.016 35.5506 106.969 40.5662C106.086 42.0197 105.327 43.6997 104.692 45.606H91.5951C92.8839 40.7223 94.7038 36.6283 97.055 33.324C97.9893 32.011 99.0187 30.8159 100.143 29.7386L143.019 29.7386ZM63.7269 45.606V29.7386L46.013 29.7386L35.7597 45.606H48.3071L49.1019 44.3631L50.6488 41.5506V45.606H63.7269Z" fill="#4DE6FF" style="mix-blend-mode:multiply"/>
</g>
<g id="Intersect_11">
<path fill-rule="evenodd" clip-rule="evenodd" d="M77.93 91.7537H63.7269V77.3408H50.6488V91.7537H18.7972L28.0138 77.3408H15.2533L5 93.2081H77.93V91.7537ZM239.649 93.2081H166.719L176.972 77.3408H189.733L180.516 91.7537H212.368V77.3408H225.446V91.7537H239.649V93.2081ZM153.868 77.3408V82.4724C153.868 86.2978 153.703 89.8763 153.375 93.2081H140.497C140.705 90.9671 140.826 88.5604 140.86 85.9881V77.3408H153.868ZM89.2503 77.3408V84.2302C89.2916 87.3952 89.4552 90.3878 89.7413 93.2081H102.641C102.386 90.54 102.258 87.6411 102.258 84.5115V77.3408H89.2503Z" fill="#4DE6FF" style="mix-blend-mode:multiply"/>
</g>
<g id="Intersect_12">
<path fill-rule="evenodd" clip-rule="evenodd" d="M212.368 124.943H225.446V126.136H212.368V124.943ZM107.652 124.943H135.662C131.682 126.676 127.016 127.543 121.664 127.543C116.313 127.543 111.642 126.676 107.652 124.943ZM63.7269 124.943V126.136H50.6488V124.943H63.7269Z" fill="#4DE6FF" style="mix-blend-mode:multiply"/>
</g>
</g>
</g>
</g>
</svg>
